<?xml version="1.0" encoding="UTF-8"?><svg xmlns="http://www.w3.org/2000/svg" viewBox="0 0 1602.07 1035"><defs><style>.e{fill:#b70053;}</style></defs><g id="a"><g><path class="e" d="m911.17,803.78c-4.1-4.04-9-7.24-14.71-9.58-5.71-2.34-12.08-3.65-19.11-3.92l-15.17-.59-3.53,91.42,15.17.59c7.03.27,13.49-.54,19.36-2.43,5.87-1.89,11.01-4.73,15.41-8.52,4.4-3.78,7.89-8.49,10.45-14.11,2.56-5.62,3.98-11.96,4.26-19.02.27-7.05-.66-13.45-2.78-19.18-2.13-5.73-5.24-10.62-9.34-14.67Z"/><path class="e" d="m1366.08,797.9c-22.75-6.32-46.51-12.41-71.25-18.13-29.29-6.77-57.58-12.47-84.74-17.29,8.43,12.37,16.86,24.73,25.3,37.1-116.84-23.16-261.95-42.2-428.78-42.58-171.27-.39-319.92,19-438.9,42.58,8.29-12.23,16.58-24.45,24.88-36.68-32.99,5.44-67.66,12.34-103.72,21.08-17.68,4.28-34.83,8.8-51.44,13.49l45.53,69.99c-4.78,28.95-9.56,57.9-14.33,86.85,18.21-6.3,38.5-12.4,60.71-17.71,22.63-5.41,43.85-9.18,63.24-11.81,2.11,10.4,4.22,20.8,6.32,31.2,109.49-21.28,245.16-38.65,400.95-38.79,157.45-.14,294.45,17.35,404.75,38.79,1.97-10.4,3.94-20.8,5.9-31.2,18.13,2.82,37.3,6.41,57.34,10.96,24.08,5.47,46.46,11.65,67.04,18.13l-15.18-86.01c15.46-23.33,30.92-46.66,46.38-69.99Zm-726.82,123.03l-38.48-97.52c-3.11,24.59-6.51,45.68-10.21,63.25-3.7,17.57-6.33,30.94-7.88,40.11l-70.53-144.64,27.51-2.64,34.3,84.8c1.29-7.07,2.54-14.61,3.75-22.64,1.2-8.03,2.43-16.16,3.69-24.41,1.26-8.24,2.5-16.31,3.71-24.2,1.21-7.89,2.4-15.29,3.56-22.21l13.74-1.52,33.65,89.86c.88-3.42,1.93-7.99,3.12-13.73,1.19-5.74,2.46-11.96,3.79-18.69,1.33-6.72,2.61-13.54,3.84-20.46,1.23-6.92,2.38-13.17,3.44-18.76,1.06-5.58,2.16-11.9,3.3-18.96l27.06-2.59-41.37,154.94Zm55.74-19.92l-6-129,24-1,5,129-23,1Zm40.63-1.19l-1.93-129.17,23.54-.31,1.46,110.33,66.87-.89.25,18.85-90.19,1.19Zm211.19-61.27c-.43,11.15-2.89,20.73-7.39,28.75-4.49,8.02-10.22,14.55-17.16,19.58-6.95,5.03-14.72,8.65-23.32,10.86-8.6,2.21-17.22,3.15-25.87,2.82l-38.47-1.49,4.77-129.1,40.45,1.56c8.35.32,16.62,1.91,24.8,4.77,8.18,2.86,15.47,7.03,21.86,12.5,6.39,5.48,11.48,12.35,15.27,20.62,3.79,8.27,5.47,17.98,5.04,29.12Zm111.96-39.51l-59.8-5.88c-1,5.44-1.87,10.77-2.61,15.98-.74,5.21-1.6,11.21-2.58,18,1.75-.67,3.5-1.25,5.24-1.75,1.57-.35,3.37-.68,5.4-.98,2.03-.3,4.26-.34,6.69-.1,5.32.52,10.83,1.99,16.51,4.39,5.68,2.41,10.79,5.84,15.35,10.32,4.55,4.48,8.12,9.95,10.71,16.41,2.59,6.47,3.46,14.02,2.61,22.66-.85,8.64-3.14,15.93-6.87,21.85-3.73,5.93-8.2,10.69-13.39,14.29-5.19,3.6-10.74,6.08-16.63,7.43-5.89,1.35-11.43,1.77-16.6,1.26-10.04-.99-19.2-4.37-27.47-10.13-8.27-5.76-15.4-14.14-21.38-25.14l19.97-10.87c4.15,7.79,8.99,13.64,14.52,17.54,5.53,3.9,11.11,6.13,16.74,6.68,2.59.25,5.38-.06,8.39-.94,3-.88,5.84-2.32,8.49-4.32,2.65-2,4.95-4.63,6.88-7.88,1.93-3.25,3.12-7.12,3.56-11.61.46-4.65.09-8.76-1.09-12.32-1.19-3.55-2.89-6.62-5.09-9.18-2.21-2.57-4.81-4.58-7.82-6.06-3.01-1.47-6.18-2.37-9.53-2.7-5.33-.52-10.33-.43-15.01.29-4.68.72-8.73,1.62-12.14,2.71-3.41,1.09-6.13,2.17-8.15,3.23-2.03,1.06-3.05,1.68-3.06,1.84l7.91-85.06,82.4,8.11-2.16,21.94Z"/></g></g><g id="b"><path class="e" d="m1054.7,423c-2.12-29.62,0-84.63-10.58-122.71-10.58-38.08-44.43-162.9-105.78-165.02-26.7-.92-52.89,50.78-69.82,95.2-25.87,67.91-69.09,139.32-69.09,139.32,0,0-30.35-48.35-59.96-116.05-18.96-43.34-33.85-112.13-80.83-118.49s-92.65,118.49-103.23,160.8c-10.58,42.31-12.69,107.9-12.51,138.57.19,30.67-6.53,96.27-6.53,123.77s8.46,65.58,40.2,90.97c31.73,25.39,74.05,25.39,105.97,42.79,31.92,17.4,63.28,41.84,120.4,41.84s99.43-38.08,129.05-48.66c29.62-10.58,67.7-21.16,86.74-33.85,19.04-12.69,40.2-48.66,43.87-87.8,3.67-39.14-5.79-111.07-7.9-140.69Zm-52.89,165.02c-5.93,13.27-14.81,31.73-55.01,38.08-46.75,7.38-90.97,59.24-141.75,59.24-57.28,0-80.39-38.08-122.71-50.78-42.31-12.69-78.28-16.92-88.86-48.66-12.92-38.76,0-98.5,0-98.5,0,0,14.81,30.8,48.66,39.26,33.85,8.46,57.12,0,69.82,6.35,12.69,6.35,27.5,33.85,33.85,0,6.35-33.85-38.08-82.51-80.39-86.74-42.31-4.23-69.82,14.81-69.82,14.81,0,0-2.12-105.78,16.93-169.25,19.04-63.47,43.12-95.2,43.12-95.2,0,0,85.93,236.7,142,237.88,56.06,1.18,144.92-237.88,144.92-237.88,0,0,44.43,74.05,50.78,112.13,6.35,38.08,10.58,150.21,10.58,150.21,0,0-16.92-23.27-76.16-10.58-59.24,12.69-71.93,67.18-71.93,84.63,0,25.39,25.39,10.58,31.73,2.12,6.35-8.46,42.31,0,71.93-8.46,29.62-8.46,48.66-33.85,48.66-33.85,0,0,9.28,60.26-6.35,95.2Z"/><g id="c"><path class="e" d="m1012.98,945.29c-63.34,31.19-134.61,48.71-209.98,48.71s-146.94-17.59-210.37-48.9c10.66-1.01,32.35-2.82,32.35-2.82,0,0,70.02-6.28,76.88-4.22,31.95,9.62,66.31,11.91,101.14,11.91,36.84,0,70.3-1.73,104-11.97,2.27-.69,73.64,4.44,73.64,4.44,0,0,21.68,1.83,32.34,2.85Z"/></g><g id="d"><path class="e" d="m1279,518c0,95.33-28.03,184.11-76.3,258.56-10.31-1.79-31.38-5.22-31.38-5.22l-15.32-3.34s1-2,2.94-5.18c47.96-69.58,76.03-153.91,76.03-244.82,0-238.57-193.4-431.97-431.97-431.97s-431.97,193.4-431.97,431.97c0,90.72,27.96,174.91,75.75,244.41,1.22,1.59,3.22,5.59,3.22,5.59l-15.61,2.91s-21.09,3.41-31.4,5.19c-48.08-74.35-75.99-162.97-75.99-258.1,0-262.89,213.11-476,476-476s476,213.11,476,476Z"/></g></g></svg>