<?xml version="1.0" encoding="UTF-8"?><svg xmlns="http://www.w3.org/2000/svg" viewBox="0 0 1602.07 1035"><defs><style>.g{fill:#b70053;}</style></defs><g id="a"><g><path class="g" d="m911.17,803.78c-4.1-4.04-9-7.24-14.71-9.58-5.71-2.34-12.08-3.65-19.11-3.92l-15.17-.59-3.53,91.42,15.17.59c7.03.27,13.49-.54,19.36-2.43,5.87-1.89,11.01-4.73,15.41-8.52,4.4-3.78,7.89-8.49,10.45-14.11,2.56-5.62,3.98-11.96,4.26-19.02.27-7.05-.66-13.45-2.78-19.18-2.13-5.73-5.24-10.62-9.34-14.67Z"/><path class="g" d="m1366.08,797.9c-22.75-6.32-46.51-12.41-71.25-18.13-29.29-6.77-57.58-12.47-84.74-17.29,8.43,12.37,16.86,24.73,25.3,37.1-116.84-23.16-261.95-42.2-428.78-42.58-171.27-.39-319.92,19-438.9,42.58,8.29-12.23,16.58-24.45,24.88-36.68-32.99,5.44-67.66,12.34-103.72,21.08-17.68,4.28-34.83,8.8-51.44,13.49l45.53,69.99c-4.78,28.95-9.56,57.9-14.33,86.85,18.21-6.3,38.5-12.4,60.71-17.71,22.63-5.41,43.85-9.18,63.24-11.81,2.11,10.4,4.22,20.8,6.32,31.2,109.49-21.28,245.16-38.65,400.95-38.79,157.45-.14,294.45,17.35,404.75,38.79,1.97-10.4,3.94-20.8,5.9-31.2,18.13,2.82,37.3,6.41,57.34,10.96,24.08,5.47,46.46,11.65,67.04,18.13l-15.18-86.01c15.46-23.33,30.92-46.66,46.38-69.99Zm-726.82,123.03l-38.48-97.52c-3.11,24.59-6.51,45.68-10.21,63.25-3.7,17.57-6.33,30.94-7.88,40.11l-70.53-144.64,27.51-2.64,34.3,84.8c1.29-7.07,2.54-14.61,3.75-22.64,1.2-8.03,2.43-16.16,3.69-24.41,1.26-8.24,2.5-16.31,3.71-24.2,1.21-7.89,2.4-15.29,3.56-22.21l13.74-1.52,33.65,89.86c.88-3.42,1.93-7.99,3.12-13.73,1.19-5.74,2.46-11.96,3.79-18.69,1.33-6.72,2.61-13.54,3.84-20.46,1.23-6.92,2.38-13.17,3.44-18.76,1.06-5.58,2.16-11.9,3.3-18.96l27.06-2.59-41.37,154.94Zm55.74-19.92l-6-129,24-1,5,129-23,1Zm40.63-1.19l-1.93-129.17,23.54-.31,1.46,110.33,66.87-.89.25,18.85-90.19,1.19Zm211.19-61.27c-.43,11.15-2.89,20.73-7.39,28.75-4.49,8.02-10.22,14.55-17.16,19.58-6.95,5.03-14.72,8.65-23.32,10.86-8.6,2.21-17.22,3.15-25.87,2.82l-38.47-1.49,4.77-129.1,40.45,1.56c8.35.32,16.62,1.91,24.8,4.77,8.18,2.86,15.47,7.03,21.86,12.5,6.39,5.48,11.48,12.35,15.27,20.62,3.79,8.27,5.47,17.98,5.04,29.12Zm111.96-39.51l-59.8-5.88c-1,5.44-1.87,10.77-2.61,15.98-.74,5.21-1.6,11.21-2.58,18,1.75-.67,3.5-1.25,5.24-1.75,1.57-.35,3.37-.68,5.4-.98,2.03-.3,4.26-.34,6.69-.1,5.32.52,10.83,1.99,16.51,4.39,5.68,2.41,10.79,5.84,15.35,10.32,4.55,4.48,8.12,9.95,10.71,16.41,2.59,6.47,3.46,14.02,2.61,22.66-.85,8.64-3.14,15.93-6.87,21.85-3.73,5.93-8.2,10.69-13.39,14.29-5.19,3.6-10.74,6.08-16.63,7.43-5.89,1.35-11.43,1.77-16.6,1.26-10.04-.99-19.2-4.37-27.47-10.13-8.27-5.76-15.4-14.14-21.38-25.14l19.97-10.87c4.15,7.79,8.99,13.64,14.52,17.54,5.53,3.9,11.11,6.13,16.74,6.68,2.59.25,5.38-.06,8.39-.94,3-.88,5.84-2.32,8.49-4.32,2.65-2,4.95-4.63,6.88-7.88,1.93-3.25,3.12-7.12,3.56-11.61.46-4.65.09-8.76-1.09-12.32-1.19-3.55-2.89-6.62-5.09-9.18-2.21-2.57-4.81-4.58-7.82-6.06-3.01-1.47-6.18-2.37-9.53-2.7-5.33-.52-10.33-.43-15.01.29-4.68.72-8.73,1.62-12.14,2.71-3.41,1.09-6.13,2.17-8.15,3.23-2.03,1.06-3.05,1.68-3.06,1.84l7.91-85.06,82.4,8.11-2.16,21.94Z"/></g></g><g id="b"><g id="c"><path class="g" d="m982.09,206.52h-364s-95.33,182.88-60.09,279.08c35.51,96.92,148.78,99.37,180.71,126.57,26.26,22.37,22.18,62.5,22.18,62.5v64.93h26.46l.66-19.16c-.29-22.17-.69-52.52-.66-53.8.81-39.01-12.04-57.43-26.7-70.8-38.23-34.86-144.44-35.81-175.42-120.38-30.76-83.95,52.44-243.55,52.44-243.55h324.84s83.19,159.6,52.43,243.55c-30.98,84.57-137.19,85.52-175.42,120.38-14.66,13.37-27.51,31.79-26.7,70.8.03,1.28-.37,31.67-.66,53.84l.66,19.12h26.46v-64.93s-4.09-40.13,22.18-62.5c31.93-27.2,145.2-29.65,180.71-126.57,35.24-96.2-60.09-279.08-60.09-279.08Z"/></g><g id="d"><path class="g" d="m929.29,390.67c-1.07-15.04,0-42.97-5.37-62.31-5.37-19.34-22.56-82.72-53.71-83.79-13.56-.47-26.86,25.78-35.45,48.34-13.14,34.48-35.08,70.74-35.08,70.74,0,0-15.41-24.55-30.45-58.93-9.63-22.01-17.19-56.94-41.04-60.17-23.86-3.23-47.05,60.17-52.42,81.65s-6.45,54.79-6.35,70.36c.09,15.57-3.32,48.88-3.32,62.85s4.3,33.3,20.41,46.19c16.11,12.89,37.6,12.89,53.81,21.73,16.21,8.83,32.13,21.25,61.14,21.25s50.49-19.34,65.53-24.71c15.04-5.37,34.38-10.74,44.05-17.19,9.67-6.45,20.41-24.71,22.28-44.58,1.86-19.87-2.94-56.4-4.01-71.44Zm-26.86,83.79c-3.01,6.74-7.52,16.11-27.93,19.34-23.74,3.75-46.19,30.08-71.98,30.08-29.09,0-40.82-19.34-62.31-25.78-21.49-6.45-39.75-8.59-45.12-24.71-6.56-19.68,0-50.02,0-50.02,0,0,7.52,15.64,24.71,19.94,17.19,4.3,29.01,0,35.45,3.22,6.45,3.22,13.97,17.19,17.19,0,3.22-17.19-19.34-41.9-40.82-44.05-21.49-2.15-35.45,7.52-35.45,7.52,0,0-1.07-53.71,8.59-85.94,9.67-32.23,21.9-48.34,21.9-48.34,0,0,43.64,120.19,72.1,120.79,28.47.6,73.59-120.79,73.59-120.79,0,0,22.56,37.6,25.78,56.94,3.22,19.34,5.37,76.27,5.37,76.27,0,0-8.59-11.82-38.67-5.37-30.08,6.45-36.53,34.11-36.53,42.97,0,12.89,12.89,5.37,16.11,1.07,3.22-4.3,21.49,0,36.53-4.3,15.04-4.3,24.71-17.19,24.71-17.19,0,0,4.71,30.6-3.22,48.34Z"/></g><g id="e"><g><path class="g" d="m375.94,473.91l30.15,2.52c-.86.3-1.75.68-2.66,1.14-.92.46-1.9.97-2.94,1.53-1.04.56-1.71.93-2,1.09l-24.18,13.39-.88,10.49,44.71,3.73.79-9.52-30.22-2.52c1.77-.64,3.36-1.32,4.79-2.04,1.43-.72,3.11-1.6,5.05-2.65l22.01-12.32.89-10.62-44.71-3.73-.79,9.52Z"/><polygon class="g" points="418.77 400.06 411.47 396.86 406.73 413.87 395.92 410.85 401.41 391.18 393.74 389.04 385.69 417.92 428.9 429.96 431.47 420.76 414.33 415.98 418.77 400.06"/><polygon class="g" points="431.65 320.92 424.1 317.29 407.57 351.67 415.12 355.3 421.33 342.39 454.21 358.19 458.35 349.58 425.47 333.78 431.65 320.92"/><path class="g" d="m488.08,259.11c-1.67-2.24-3.84-4.8-6.49-7.68,3.3,2.1,6.2,3.77,8.71,5.02l22.41,11.51,7.82-9.35-26.62-37.24-.43-.35-6.35,7.6,14.85,19.36c1.07,1.38,2.32,2.92,3.73,4.61,1.41,1.69,2.77,3.27,4.08,4.72-3.67-2.23-7.21-4.22-10.61-5.98l-21.82-11.03-7.15,8.55,15,19.94c1.78,2.33,4.26,5.31,7.43,8.92-1.77-1.12-3.59-2.22-5.45-3.3-1.87-1.08-3.4-1.91-4.6-2.49l-22.33-11.18-6.44,7.7.42.36,41.41,19.55,7.82-9.35-15.39-19.91Z"/><rect class="g" x="539.31" y="183.76" width="9.55" height="44.86" transform="translate(-6.56 394.15) rotate(-39.6)"/><path class="g" d="m597.18,143.04l15.17,26.18c-.74-.53-1.56-1.04-2.46-1.54-.9-.49-1.88-1-2.94-1.54-1.06-.53-1.74-.87-2.04-1.02l-24.81-12.19-9.1,5.27,22.49,38.82,8.27-4.79-15.2-26.24c1.54,1.08,3.01,2,4.41,2.77,1.4.76,3.09,1.64,5.06,2.63l22.68,11.02,9.23-5.34-22.49-38.82-8.27,4.79Z"/><polygon class="g" points="669.88 150.64 666.31 140.38 681.92 134.95 680.39 127.13 663.72 132.92 660.4 123.37 679.69 116.67 677.08 109.15 648.76 118.99 663.49 161.36 692.13 151.41 689.5 143.83 669.88 150.64"/><path class="g" d="m767.48,128.69c-1.46.71-3.2,1.18-5.23,1.42-3.96.47-7.18-.45-9.65-2.76-2.47-2.31-4-5.94-4.58-10.89-1.18-9.94,2.13-15.38,9.92-16.3,3.82-.45,7.5.18,11.02,1.9l2.81-7.65c-2.5-1.1-4.96-1.84-7.38-2.23-2.42-.39-5.02-.42-7.82-.09-3.99.47-7.48,1.67-10.49,3.58-3,1.91-5.26,4.74-6.77,8.47-1.51,3.73-1.93,8.42-1.26,14.06.82,6.97,3.21,12.32,7.16,16.06,3.95,3.74,9.66,5.16,17.13,4.28,2.66-.31,5.12-.99,7.39-2.02,2.27-1.04,4.56-2.43,6.86-4.19l-4.61-6.42c-1.55,1.16-3.05,2.09-4.5,2.8Z"/><path class="g" d="m847.55,94.55c-3.19-2.22-7.18-3.51-11.97-3.85-4.19-.31-8.06.26-11.61,1.69-3.55,1.43-6.49,3.81-8.81,7.13-2.32,3.33-3.67,7.56-4.05,12.72-.34,4.65.22,8.8,1.66,12.44,1.45,3.65,3.77,6.58,6.96,8.8,3.19,2.22,7.18,3.51,11.97,3.86,4.19.3,8.06-.26,11.61-1.69,3.55-1.43,6.48-3.81,8.78-7.14,2.3-3.33,3.64-7.57,4.01-12.72.34-4.65-.21-8.8-1.63-12.44-1.42-3.64-3.73-6.58-6.93-8.8Zm-1.53,20.57c-.22,3.08-.89,5.73-2,7.94-1.11,2.21-2.66,3.85-4.66,4.94-2,1.08-4.36,1.52-7.07,1.32-4-.29-6.94-1.88-8.82-4.77s-2.63-6.77-2.28-11.65c.34-4.7,1.69-8.31,4.05-10.85,2.36-2.54,5.61-3.65,9.75-3.35,3.96.29,6.87,1.88,8.75,4.77,1.87,2.89,2.63,6.77,2.28,11.65Z"/><polygon class="g" points="911.18 104.09 901.95 101.62 890.37 144.96 919.53 152.76 921.71 144.6 901.78 139.27 911.18 104.09"/><polygon class="g" points="979.87 128.24 971.19 124.24 952.43 164.99 979.84 177.62 983.38 169.94 964.64 161.31 979.87 128.24"/><polygon class="g" points="1010.25 195.22 1035.22 212.43 1039.77 205.82 1022.68 194.03 1028.85 185.08 1042.45 194.47 1047.86 188.61 1033.33 178.59 1039.06 170.27 1055.88 181.86 1060.39 175.3 1035.72 158.29 1010.25 195.22"/><path class="g" d="m1114.3,223.14c-1.2-2.13-2.81-4.19-4.81-6.17-2.85-2.82-5.97-4.81-9.33-5.97-3.37-1.16-6.98-1.16-10.84-.01-3.86,1.15-7.79,3.74-11.78,7.78-4.93,4.99-7.63,10.19-8.09,15.61-.46,5.42,1.99,10.77,7.33,16.06,1.9,1.88,3.97,3.39,6.19,4.52,2.23,1.13,4.74,2.05,7.55,2.75l2.15-7.61c-1.87-.49-3.54-1.08-5-1.78-1.46-.7-2.92-1.77-4.37-3.2-2.84-2.81-4.12-5.89-3.85-9.26.27-3.37,2.15-6.83,5.66-10.37,7.04-7.12,13.35-7.93,18.93-2.41,2.74,2.71,4.53,5.98,5.38,9.8l7.73-2.57c-.7-2.64-1.65-5.03-2.86-7.16Z"/><polygon class="g" points="1159.82 294.16 1166.68 289.34 1144.76 258.12 1137.91 262.93 1146.14 274.66 1116.28 295.62 1121.77 303.44 1151.63 282.48 1159.82 294.16"/><rect class="g" x="1146.91" y="335.83" width="44.86" height="9.55" transform="translate(-30.16 551.72) rotate(-26.22)"/><path class="g" d="m1200.39,425.4c4.47-1.33,8.15-3.31,11.05-5.93,2.9-2.62,4.83-5.82,5.77-9.59.95-3.77.73-7.96-.64-12.56-1.2-4.02-3.1-7.44-5.69-10.26-2.6-2.81-5.86-4.72-9.79-5.71-3.93-1-8.38-.75-13.33.72-4.47,1.33-8.15,3.32-11.04,5.96-2.9,2.64-4.82,5.85-5.76,9.63-.95,3.77-.73,7.96.64,12.56,1.2,4.02,3.1,7.44,5.69,10.26,2.6,2.81,5.86,4.71,9.78,5.68,3.93.97,8.37.72,13.32-.75Zm-21.1-17.48c-1.15-3.85-.7-7.16,1.34-9.93,2.04-2.77,5.4-4.86,10.09-6.26,4.51-1.34,8.37-1.36,11.58-.06,3.21,1.31,5.4,3.95,6.59,7.93,1.13,3.8.68,7.09-1.36,9.87-2.04,2.77-5.4,4.86-10.09,6.26-2.96.88-5.67,1.2-8.13.94-2.46-.25-4.55-1.12-6.27-2.61-1.72-1.49-2.97-3.53-3.75-6.14Z"/><path class="g" d="m1232.8,493.9l-30.14,2.58c.79-.44,1.61-.96,2.44-1.57.83-.6,1.71-1.27,2.64-2,.93-.73,1.53-1.2,1.79-1.41l21.59-17.26-.9-10.48-44.7,3.83.82,9.52,30.21-2.59c-1.63.93-3.09,1.87-4.38,2.82s-2.8,2.1-4.53,3.46l-19.63,15.84.91,10.62,44.7-3.83-.82-9.52Z"/><path class="g" d="m524.3,630.65c-2.52-2.12-5.78-3.18-9.78-3.18h-13.92v43.2h7.26v-18.24c6.4,0,10.96-.56,13.68-1.68,4.52-1.8,6.78-5.4,6.78-10.8,0-3.92-1.34-7.02-4.02-9.3Zm-10.44,15.18h-6v-11.94h5.64c4.92,0,7.38,1.96,7.38,5.88s-2.34,6.06-7.02,6.06Z"/><path class="g" d="m532.4,640.19v30.48h7.2v-18.36h16.44v-6.6h-16.44v-.36c0-4.84.46-7.92,1.38-9.24,1.2-1.8,4.1-2.7,8.7-2.7,2.44,0,5,.24,7.68.72v-6.6c-2.6-.52-5.22-.78-7.86-.78-11.4,0-17.1,4.48-17.1,13.44Z"/><path class="g" d="m584.6,630.65c-2.52-2.12-5.78-3.18-9.78-3.18h-13.92v43.2h7.26v-18.24c6.4,0,10.96-.56,13.68-1.68,4.52-1.8,6.78-5.4,6.78-10.8,0-3.92-1.34-7.02-4.02-9.3Zm-10.44,15.18h-6v-11.94h5.64c4.92,0,7.38,1.96,7.38,5.88s-2.34,6.06-7.02,6.06Z"/><path class="g" d="m1001.63,654.49c-1.33,0-2.47.47-3.42,1.41-.95.94-1.42,2.08-1.42,3.44s.47,2.47,1.42,3.42c.95.95,2.09,1.42,3.42,1.42s2.5-.47,3.44-1.42c.94-.95,1.41-2.09,1.41-3.42s-.47-2.5-1.41-3.44c-.94-.94-2.08-1.41-3.44-1.41Z"/><path class="g" d="m1046.38,621.92c.94-.95,1.41-2.09,1.41-3.42s-.47-2.5-1.41-3.44c-.94-.94-2.08-1.41-3.44-1.41s-2.47.47-3.42,1.41c-.95.94-1.42,2.08-1.42,3.44s.47,2.47,1.42,3.42,2.09,1.42,3.42,1.42,2.5-.47,3.44-1.42Z"/><polygon class="g" points="1046.64 634.53 1046.64 630.8 1046.64 628.84 1028.46 628.84 1028.46 634.53 1039.71 634.53 1039.71 657.82 1026.49 657.82 1026.49 663.51 1039.71 663.51 1040.36 663.51 1045.99 663.51 1046.64 663.51 1057.31 663.51 1057.31 657.82 1046.64 657.82 1046.64 634.53"/><path class="g" d="m1080.14,628.18c-4.8,0-8.53,1.57-11.19,4.69-2.66,3.13-3.99,7.56-3.99,13.3s1.33,10.14,3.99,13.28,6.39,4.71,11.19,4.71,8.55-1.57,11.21-4.71c2.65-3.14,3.97-7.57,3.97-13.28s-1.33-10.17-3.97-13.3c-2.65-3.13-6.38-4.69-11.21-4.69Zm5.91,26.7c-1.39,2.05-3.35,3.08-5.91,3.08s-4.52-1.02-5.91-3.08c-1.39-2.05-2.08-4.95-2.08-8.7s.69-6.68,2.08-8.72c1.38-2.04,3.35-3.06,5.91-3.06s4.52,1.02,5.91,3.06c1.38,2.04,2.08,4.95,2.08,8.72s-.69,6.65-2.08,8.7Z"/></g></g><g id="f"><path class="g" d="m1276,518c0,94.73-27.85,182.95-75.82,256.93-6.08-1.06-12.21-2.1-18.4-3.11-4.24-.71-8.5-1.4-12.78-2.08,49.32-71.54,78.18-158.26,78.18-251.74,0-245.31-198.87-444.18-444.18-444.18s-444.18,198.87-444.18,444.18c0,93.29,28.75,179.85,77.89,251.32-5.2.82-10.37,1.66-15.49,2.5-5.28.87-10.51,1.75-15.71,2.65-47.78-73.88-75.51-161.94-75.51-256.47,0-261.23,211.77-473,473-473s473,211.77,473,473Z"/><path class="g" d="m1011.66,942.6c-1.22.6-2.45,1.2-3.68,1.79-62.01,29.87-131.54,46.61-204.98,46.61s-143.34-16.83-205.48-46.85c-1.19-.58-2.38-1.16-3.56-1.74,20.35-1.93,41.14-3.62,62.36-5.02,45.92,16.06,95.28,24.79,146.68,24.79s100.47-8.67,146.28-24.65c21.23,1.42,42.03,3.12,62.38,5.07Z"/></g></g></svg>